<svg width="159" height="159" viewBox="0 0 159 159" fill="none" xmlns="http://www.w3.org/2000/svg">
<mask id="path-1-inside-1_268_590" fill="white">
<path fill-rule="evenodd" clip-rule="evenodd" d="M79.5139 158.425L80.9136 158.425C92.1977 158.427 102.965 158.428 111.623 157.466C120.424 156.488 133.458 153.993 143.77 143.681C154.082 133.369 156.577 120.335 157.555 111.534C158.517 102.876 158.516 92.1086 158.514 80.8244L158.514 79.4248C158.514 35.7943 123.144 0.424805 79.5139 0.424805C35.8834 0.424805 0.513916 35.7943 0.513916 79.4248C0.513916 123.055 35.8834 158.425 79.5139 158.425ZM103.532 129.048L79.5139 105.03L102.848 81.6953L128.805 107.652C129.514 100.699 129.514 91.5266 129.514 79.4248C129.514 51.8106 107.128 29.4248 79.5139 29.4248C51.8997 29.4248 29.5139 51.8106 29.5139 79.4248C29.5139 107.039 51.8997 129.425 79.5139 129.425C89.316 129.425 97.1965 129.425 103.532 129.048Z"/>
</mask>
<path d="M80.9136 158.425L80.9141 154.425L80.9139 154.425L80.9136 158.425ZM79.5139 158.425L79.5143 154.425H79.5139V158.425ZM111.623 157.466L112.064 161.442L112.064 161.442L111.623 157.466ZM143.77 143.681L140.942 140.852L140.942 140.852L143.77 143.681ZM157.555 111.534L161.531 111.975L161.531 111.975L157.555 111.534ZM158.514 80.8244L154.514 80.8248L154.514 80.825L158.514 80.8244ZM158.514 79.4248L154.514 79.4248L154.514 79.4252L158.514 79.4248ZM79.5139 105.03L76.6854 102.201L73.857 105.03L76.6854 107.858L79.5139 105.03ZM103.532 129.048L103.77 133.041L112.654 132.513L106.361 126.22L103.532 129.048ZM102.848 81.6953L105.677 78.8669L102.848 76.0385L100.02 78.8669L102.848 81.6953ZM128.805 107.652L125.977 110.48L131.93 116.434L132.784 108.058L128.805 107.652ZM80.9139 154.425L79.5143 154.425L79.5136 162.425L80.9132 162.425L80.9139 154.425ZM111.181 153.491C102.792 154.423 92.2723 154.427 80.9141 154.425L80.913 162.425C92.1232 162.427 103.139 162.433 112.064 161.442L111.181 153.491ZM140.942 140.852C131.62 150.174 119.736 152.54 111.181 153.491L112.064 161.442C121.112 160.436 135.296 157.812 146.598 146.509L140.942 140.852ZM153.58 111.092C152.629 119.647 150.263 131.531 140.942 140.852L146.598 146.509C157.901 135.207 160.526 121.023 161.531 111.975L153.58 111.092ZM154.514 80.825C154.516 92.1832 154.512 102.702 153.58 111.092L161.531 111.975C162.523 103.05 162.516 92.0341 162.514 80.8239L154.514 80.825ZM154.514 79.4252L154.514 80.8248L162.514 80.8241L162.514 79.4245L154.514 79.4252ZM79.5139 4.4248C120.935 4.4248 154.514 38.0035 154.514 79.4248H162.514C162.514 33.5852 125.354 -3.5752 79.5139 -3.5752V4.4248ZM4.51392 79.4248C4.51392 38.0035 38.0926 4.4248 79.5139 4.4248V-3.5752C33.6743 -3.5752 -3.48608 33.5852 -3.48608 79.4248H4.51392ZM79.5139 154.425C38.0926 154.425 4.51392 120.846 4.51392 79.4248H-3.48608C-3.48608 125.264 33.6743 162.425 79.5139 162.425V154.425ZM76.6854 107.858L100.704 131.877L106.361 126.22L82.3423 102.201L76.6854 107.858ZM100.02 78.8669L76.6854 102.201L82.3423 107.858L105.677 84.5237L100.02 78.8669ZM131.633 104.823L105.677 78.8669L100.02 84.5237L125.977 110.48L131.633 104.823ZM125.514 79.4248C125.514 91.6144 125.509 100.545 124.826 107.246L132.784 108.058C133.519 100.854 133.514 91.4387 133.514 79.4248H125.514ZM79.5139 33.4248C104.919 33.4248 125.514 54.0197 125.514 79.4248H133.514C133.514 49.6014 109.337 25.4248 79.5139 25.4248V33.4248ZM33.5139 79.4248C33.5139 54.0197 54.1088 33.4248 79.5139 33.4248V25.4248C49.6905 25.4248 25.5139 49.6014 25.5139 79.4248H33.5139ZM79.5139 125.425C54.1088 125.425 33.5139 104.83 33.5139 79.4248H25.5139C25.5139 109.248 49.6905 133.425 79.5139 133.425V125.425ZM103.295 125.055C97.1047 125.423 89.361 125.425 79.5139 125.425V133.425C89.2711 133.425 97.2883 133.426 103.77 133.041L103.295 125.055Z" fill="#989898" mask="url(#path-1-inside-1_268_590)"/>
</svg>
